<?xml version="1.0" encoding="UTF-8" standalone="no"?>
<!-- Generator: Adobe Illustrator 15.1.0, SVG Export Plug-In . SVG Version: 6.00 Build 0)  -->

<svg
   xmlns:dc="http://purl.org/dc/elements/1.1/"
   xmlns:cc="http://creativecommons.org/ns#"
   xmlns:rdf="http://www.w3.org/1999/02/22-rdf-syntax-ns#"
   xmlns:svg="http://www.w3.org/2000/svg"
   xmlns="http://www.w3.org/2000/svg"
   xmlns:sodipodi="http://sodipodi.sourceforge.net/DTD/sodipodi-0.dtd"
   xmlns:inkscape="http://www.inkscape.org/namespaces/inkscape"
   version="1.0"
   x="0px"
   y="0px"
   width="772"
   height="250"
   viewBox="0 0 772 249.99999"
   enable-background="new 0 0 540 122.523"
   xml:space="preserve"
   id="svg2"
   inkscape:version="0.91 r13725"
   sodipodi:docname="logo.svg"
   inkscape:export-filename="C:\xampp\htdocs\surveypress\assets\banner-772x250.png"
   inkscape:export-xdpi="90"
   inkscape:export-ydpi="90"><metadata
     id="metadata38"><rdf:RDF><cc:Work
         rdf:about=""><dc:format>image/svg+xml</dc:format><dc:type
           rdf:resource="http://purl.org/dc/dcmitype/StillImage" /><dc:title /></cc:Work></rdf:RDF></metadata><defs
     id="defs36" /><sodipodi:namedview
     pagecolor="#ffffff"
     bordercolor="#666666"
     borderopacity="1"
     objecttolerance="10"
     gridtolerance="10"
     guidetolerance="10"
     inkscape:pageopacity="0"
     inkscape:pageshadow="2"
     inkscape:window-width="1920"
     inkscape:window-height="1024"
     id="namedview34"
     showgrid="false"
     showguides="true"
     inkscape:guide-bbox="true"
     inkscape:zoom="1.0535145"
     inkscape:cx="455.13065"
     inkscape:cy="62.809559"
     inkscape:window-x="-8"
     inkscape:window-y="-8"
     inkscape:window-maximized="1"
     inkscape:current-layer="svg2"><sodipodi:guide
       position="250.58981,74.987102"
       orientation="0,1"
       id="guide3399" /><sodipodi:guide
       position="299.47381,34.645939"
       orientation="0,1"
       id="guide3401" /><sodipodi:guide
       position="217.36768,86.377547"
       orientation="0,1"
       id="guide3403" /></sodipodi:namedview><g
     id="Layer_1"
     transform="translate(0,127.477)" /><g
     id="g3405"
     transform="matrix(1.4040162,0,0,1.4040162,5.4662902,9.3854048)"><path
       style="fill:#464342"
       inkscape:connector-curvature="0"
       id="path14"
       d="m 379.6272,85.670328 0,2.208709 -25.28995,0 0,-2.208709 c 7.39987,0 8.7251,-1.876704 8.7251,-12.922107 l 0,-17.668738 c 0,-11.045403 -1.32523,-12.81144 -8.7251,-12.81144 l 0,-2.209638 22.8599,0 c 11.37462,0 17.67153,5.85331 17.67153,13.695852 0,7.620277 -6.29691,13.583325 -17.67153,13.583325 l -6.29505,0 0,5.409709 c 0,11.046333 1.32523,12.923037 8.7251,12.923037 z m -2.43005,-41.636248 -6.29505,0 0,19.217159 6.29505,0 c 6.18532,0 9.05617,-4.306749 9.05617,-9.496982 0,-5.3009 -2.87085,-9.720177 -9.05617,-9.720177 z" /><path
       style="fill:#464342"
       inkscape:connector-curvature="0"
       id="path16"
       d="m 470.73666,77.498572 -0.55241,1.987372 c -0.99322,3.644602 -2.20964,4.969827 -10.05032,4.969827 l -1.54657,0 c -5.74171,0 -6.73586,-1.325225 -6.73586,-9.165908 l 0,-5.079564 c 8.61443,0 9.27751,0.771885 9.27751,6.515457 l 2.09804,0 0,-16.456041 -2.09804,0 c 0,5.742642 -0.66308,6.515458 -9.27751,6.515458 l 0,-12.367838 6.07279,0 c 7.84254,0 9.05617,1.325225 10.05032,4.969827 l 0.55334,2.09711 1.76603,0 -0.77188,-10.380465 -32.46941,0 0,2.097111 c 6.18345,0 7.17853,1.325225 7.17853,9.166838 l 0,14.136664 c 0,7.172956 -0.84442,8.979912 -5.72032,9.237517 -4.6341,-0.707717 -7.81557,-3.235409 -12.16882,-8.022959 l -5.0805,-5.521307 c 6.84747,-1.216417 10.49207,-5.522236 10.49207,-10.382325 0,-6.072786 -5.19023,-10.711539 -14.90855,-10.711539 l -19.43664,0 0,2.097111 c 6.18346,0 7.17761,1.325225 7.17761,9.166838 l 0,14.136664 c 0,7.840683 -0.99322,9.276576 -7.17761,9.276576 l 0,2.098041 21.97735,0 0,-2.098041 c -6.18345,0 -7.17854,-1.435893 -7.17854,-9.276576 l 0,-3.974745 1.87764,0 12.2581,15.349362 45.38873,0 0.66307,-10.379535 -1.65815,0 z m -58.53032,-8.394953 0,-14.686284 4.52716,0 c 4.96983,0 7.17946,3.423266 7.17946,7.398941 0,3.865938 -2.20963,7.288273 -7.17946,7.288273 l -4.52716,0 z" /><path
       style="fill:#464342"
       inkscape:connector-curvature="0"
       id="path18"
       d="m 493.15482,89.314 c -4.41742,0 -8.28336,-2.318446 -9.93966,-3.75527 -0.55241,0.55334 -1.54563,2.209639 -1.76603,3.75527 l -2.09898,0 0,-15.238694 2.20871,0 c 0.88442,7.288273 5.96305,11.595022 12.47944,11.595022 3.53393,0 6.40572,-1.987372 6.40572,-5.29997 0,-2.870856 -2.53978,-5.080495 -7.06787,-7.178535 l -6.29505,-2.981524 c -4.41835,-2.099901 -7.73095,-5.744503 -7.73095,-10.602731 0,-5.300901 4.96983,-9.828056 11.81729,-9.828056 3.6446,0 6.73587,1.325225 8.61443,2.870856 0.55148,-0.441742 1.10389,-1.657229 1.43589,-2.983384 l 2.09804,0 0,13.032776 -2.31937,0 c -0.77375,-5.191163 -3.6446,-9.497912 -9.49698,-9.497912 -3.0922,0 -5.96491,1.766967 -5.96491,4.529015 0,2.870856 2.31937,4.416487 7.62121,6.846531 l 6.07278,2.981524 c 5.30183,2.539783 7.39894,6.627986 7.39894,9.940584 0,6.956269 -6.07371,11.814498 -13.47265,11.814498 z" /><path
       style="fill:#464342"
       inkscape:connector-curvature="0"
       id="path20"
       d="m 527.16893,89.314 c -4.41835,0 -8.28429,-2.318446 -9.93966,-3.75527 -0.55241,0.55334 -1.54563,2.209639 -1.76603,3.75527 l -2.09897,0 0,-15.238694 2.2087,0 c 0.88349,7.288273 5.96305,11.595022 12.47944,11.595022 3.53393,0 6.40572,-1.987372 6.40572,-5.29997 0,-2.870856 -2.53978,-5.080495 -7.0688,-7.178535 l -6.29505,-2.981524 c -4.41742,-2.099901 -7.73094,-5.744503 -7.73094,-10.602731 0,-5.300901 4.96982,-9.828056 11.81728,-9.828056 3.64461,0 6.73587,1.325225 8.61443,2.870856 0.55148,-0.441742 1.10389,-1.657229 1.43404,-2.983384 l 2.09897,0 0,13.032776 -2.31845,0 c -0.77375,-5.191163 -3.6446,-9.497912 -9.49698,-9.497912 -3.09219,0 -5.96491,1.766967 -5.96491,4.529015 0,2.870856 2.31938,4.416487 7.62121,6.846531 l 6.07278,2.981524 c 5.30183,2.539783 7.39894,6.627986 7.39894,9.940584 0,6.956269 -6.07371,11.814498 -13.47172,11.814498 z" /></g><path
     style="fill:#464342"
     inkscape:connector-curvature="0"
     id="path30"
     d="m 101.58333,46.667594 c 0.31731,2.35032 0.49702,4.87334 0.49702,7.5873 0,7.48762 -1.3984,15.9047 -5.610445,26.4292 L 73.931233,145.8487 c 21.936349,-12.79199 36.691157,-36.55778 36.691157,-63.778836 0.001,-12.8285 -3.27557,-24.8918 -9.03906,-35.40227 z" /><path
     style="fill:#464342"
     inkscape:connector-curvature="0"
     id="path32"
     d="m 92.274705,10.246011 c -47.426262,0 -86.0128393,38.583773 -86.0128393,86.010033 0,47.431876 38.5865773,86.014236 86.0128393,86.014236 47.424855,0 86.017045,-38.58236 86.017045,-86.014236 -0.001,-47.42626 -38.59219,-86.010033 -86.017045,-86.010033 z m 0,168.081789 c -45.251441,0 -82.068958,-36.81751 -82.068958,-82.071756 0,-45.25144 36.816113,-82.066152 82.068958,-82.066152 45.250035,0 82.064735,36.814712 82.064735,82.066152 0,45.254246 -36.8147,82.071756 -82.064735,82.071756 z" /><text
     xml:space="preserve"
     style="font-style:normal;font-variant:normal;font-weight:bold;font-stretch:normal;font-size:101.19256592px;line-height:0%;font-family:'Times New Roman';-inkscape-font-specification:'Times New Roman,  Bold';text-align:start;letter-spacing:0px;word-spacing:0px;writing-mode:lr-tb;text-anchor:start;fill:#008000;fill-opacity:1;stroke:none;stroke-width:1px;stroke-linecap:butt;stroke-linejoin:miter;stroke-opacity:1"
     x="191.48134"
     y="132.5116"
     id="text3393"
     sodipodi:linespacing="0%"><tspan
       sodipodi:role="line"
       id="tspan3395"
       x="191.48134"
       y="132.5116"
       dx="-10.576261"
       style="letter-spacing:-2.61142111px">S<tspan
   style="font-style:normal;font-variant:normal;font-weight:bold;font-stretch:normal;font-size:78.34263611px;line-height:0%;font-family:'Times New Roman';-inkscape-font-specification:'Times New Roman, Bold';text-align:start;letter-spacing:-2.61142111px;writing-mode:lr-tb;text-anchor:start"
   id="tspan3397">URVEY</tspan></tspan></text>
<path
     d="m 92.275014,22.906221 c -40.445538,0 -73.352518,32.904593 -73.352518,73.350133 0,40.450326 32.90698,73.353716 73.352518,73.353716 40.444356,0 73.356106,-32.90339 73.356106,-73.353716 -0.001,-40.44554 -32.91175,-73.350133 -73.356106,-73.350133 z"
     id="path3416"
     inkscape:connector-curvature="0"
     style="fill:#008000;fill-opacity:1"
     sodipodi:nodetypes="ssscs" /><path
     inkscape:connector-curvature="0"
     id="path1872"
     style="fill:#00d400;fill-rule:evenodd"
     d="m 166.3599,26.875108 c -26.07892,22.225686 -52.95042,45.741396 -66.618042,77.950092 -2.48732,5.39624 -4.54463,11.3405 -6.424876,16.80418 C 80.905673,105.41542 60.40003,99.057994 42.280531,91.511714 c -8.499049,-3.59185 -5.505833,5.53956 -0.986497,7.99315 22.655698,11.264616 43.57449,32.984406 56.778369,53.886336 9.822807,-46.89654 41.820717,-85.665006 71.870927,-121.7944 2.5379,-3.001646 1.27316,-9.021814 -3.58343,-4.721692 z"
     inkscape:export-ydpi="200.03999"
     sodipodi:nodetypes="cccccccc"
     inkscape:export-filename="/home/hsl/Desktop/Checkmark.png"
     inkscape:export-xdpi="200.03999" /><text
     xml:space="preserve"
     style="font-style:normal;font-variant:normal;font-weight:normal;font-stretch:normal;font-size:28.99889183px;line-height:125%;font-family:'Bitstream Vera Sans';-inkscape-font-specification:'Bitstream Vera Sans, Normal';text-align:end;letter-spacing:0px;word-spacing:0px;writing-mode:lr-tb;text-anchor:end;fill:#000000;fill-opacity:1;stroke:none;stroke-width:1px;stroke-linecap:butt;stroke-linejoin:miter;stroke-opacity:1"
     x="752.60168"
     y="187.84764"
     id="text3424"
     sodipodi:linespacing="125%"><tspan
       sodipodi:role="line"
       id="tspan3426"
       x="761.83374"
       y="187.84764">Connect WordPress to the </tspan><tspan
       sodipodi:role="line"
       x="752.60168"
       y="224.09625"
       id="tspan3350">power of LimeSurvey</tspan></text>
</svg>